<mxfile host="app.diagrams.net" modified="2021-05-07T18:54:36.779Z" agent="5.0 (Windows NT 10.0; Win64; x64) AppleWebKit/537.36 (KHTML, like Gecko) Chrome/90.0.4430.93 Safari/537.36" etag="L33kjzNE88YYRisBxtTO" version="14.6.11" type="github">
  <diagram name="Page-1" id="929967ad-93f9-6ef4-fab6-5d389245f69c">
    <mxGraphModel dx="1221" dy="645" grid="1" gridSize="10" guides="1" tooltips="1" connect="1" arrows="1" fold="1" page="1" pageScale="1.5" pageWidth="1169" pageHeight="826" background="none" math="0" shadow="0">
      <root>
        <mxCell id="0" style=";html=1;" />
        <mxCell id="1" style=";html=1;" parent="0" />
        <mxCell id="4SDERnu0nhhUJRtD152m-3" value="" style="edgeStyle=orthogonalEdgeStyle;rounded=0;orthogonalLoop=1;jettySize=auto;html=1;" edge="1" parent="1" source="4SDERnu0nhhUJRtD152m-1" target="4SDERnu0nhhUJRtD152m-2">
          <mxGeometry relative="1" as="geometry" />
        </mxCell>
        <mxCell id="4SDERnu0nhhUJRtD152m-1" value="open an editor" style="rounded=0;whiteSpace=wrap;html=1;" vertex="1" parent="1">
          <mxGeometry x="820" y="80" width="120" height="60" as="geometry" />
        </mxCell>
        <mxCell id="4SDERnu0nhhUJRtD152m-5" value="" style="edgeStyle=orthogonalEdgeStyle;rounded=0;orthogonalLoop=1;jettySize=auto;html=1;" edge="1" parent="1" source="4SDERnu0nhhUJRtD152m-2" target="4SDERnu0nhhUJRtD152m-4">
          <mxGeometry relative="1" as="geometry" />
        </mxCell>
        <mxCell id="4SDERnu0nhhUJRtD152m-2" value="write a helloworld" style="rounded=0;whiteSpace=wrap;html=1;" vertex="1" parent="1">
          <mxGeometry x="820" y="220" width="120" height="60" as="geometry" />
        </mxCell>
        <mxCell id="4SDERnu0nhhUJRtD152m-10" style="edgeStyle=orthogonalEdgeStyle;rounded=0;orthogonalLoop=1;jettySize=auto;html=1;exitX=0.5;exitY=1;exitDx=0;exitDy=0;entryX=1;entryY=0.5;entryDx=0;entryDy=0;" edge="1" parent="1" source="4SDERnu0nhhUJRtD152m-4" target="4SDERnu0nhhUJRtD152m-6">
          <mxGeometry relative="1" as="geometry" />
        </mxCell>
        <mxCell id="4SDERnu0nhhUJRtD152m-11" style="edgeStyle=orthogonalEdgeStyle;rounded=0;orthogonalLoop=1;jettySize=auto;html=1;exitX=0.5;exitY=1;exitDx=0;exitDy=0;entryX=0;entryY=0.5;entryDx=0;entryDy=0;" edge="1" parent="1" source="4SDERnu0nhhUJRtD152m-4" target="4SDERnu0nhhUJRtD152m-8">
          <mxGeometry relative="1" as="geometry" />
        </mxCell>
        <mxCell id="4SDERnu0nhhUJRtD152m-4" value="run" style="rounded=0;whiteSpace=wrap;html=1;" vertex="1" parent="1">
          <mxGeometry x="820" y="360" width="120" height="60" as="geometry" />
        </mxCell>
        <mxCell id="4SDERnu0nhhUJRtD152m-6" value="collapse" style="rounded=0;whiteSpace=wrap;html=1;" vertex="1" parent="1">
          <mxGeometry x="620" y="480" width="120" height="60" as="geometry" />
        </mxCell>
        <mxCell id="4SDERnu0nhhUJRtD152m-8" value="success" style="rounded=0;whiteSpace=wrap;html=1;" vertex="1" parent="1">
          <mxGeometry x="1020" y="480" width="120" height="60" as="geometry" />
        </mxCell>
        <mxCell id="4SDERnu0nhhUJRtD152m-12" value="OR" style="text;html=1;strokeColor=none;fillColor=none;align=center;verticalAlign=middle;whiteSpace=wrap;rounded=0;" vertex="1" parent="1">
          <mxGeometry x="890" y="480" width="40" height="20" as="geometry" />
        </mxCell>
      </root>
    </mxGraphModel>
  </diagram>
</mxfile>
